<svg xmlns="http://www.w3.org/2000/svg" width="190.12" height="46.637" viewBox="0 0 190.12 46.637"><defs><style>.a{fill:#e02020;}.b,.c{fill:#6f7f91;}.c{font-size:14px;font-family:IBMPlexSansThai-Medium, IBM Plex Sans Thai;font-weight:500;}.d{fill:none;stroke:#647486;}</style></defs><g transform="translate(0 0.695)"><g transform="translate(3469.791 210.941)"><path class="a" d="M-3464-172.307h-5.083c-.246-.269-.544-.442-.546-.617-.076-10.463-.245-20.927-.107-31.388.039-2.946,1.867-5.141,4.9-6.016,3.559-1.026,6.987-.977,9.735,1.818a14.985,14.985,0,0,1,2.643,4.241c3.593,7.75,6.991,15.593,10.741,23.264a2.8,2.8,0,0,0,.374.567,3.171,3.171,0,0,0,5.507-1.562,3.294,3.294,0,0,0,.032-.382c.189-7.82.089-15.646.089-23.47v-4.115h6.174c0,3.405,0,6.733,0,10.06,0,6.379.011,12.759,0,19.138-.012,5.4-1.689,7.859-6.009,8.9-4.985,1.2-8.874-.541-11.061-5.126-1.865-3.909-3.56-7.9-5.351-11.842-2.041-4.493-3.975-9.042-6.249-13.414a2.283,2.283,0,0,0-.411-.551,3.007,3.007,0,0,0-4.945,1.133,2.163,2.163,0,0,0-.11.616c-.183,8.3-.091,16.609-.11,24.914C-3463.794-174.955-3463.918-173.775-3464-172.307Z" transform="translate(0)"/><path class="a" d="M-3400.26-203.723v-6.088c7.824,0,15.391-.284,22.923.1,5,.254,8.37,3.868,9.346,8.667a12.292,12.292,0,0,1-5.146,12.587c-.79.489-1.6.948-2.677,1.585l8.275,14.612c-4.158.865-6.862.356-9.085-3.583-.979-1.735-1.655-3.134-2.431-4.7-2.837-5.788-5.97-7.095-11.549-6.445-2.654.309-3.966.892-3.814,3.805.188,3.579.045,7.176.045,11.014h-5.972c0-5.5-.2-11,.089-16.477.133-2.527,2.026-3.969,4.757-3.962,4.332.01,8.664-.022,13-.066a27.6,27.6,0,0,0,3.594-.219c3.251-.46,4.965-2.453,4.847-5.668-.122-3.32-2.246-5.006-5.429-5.085-5.413-.132-10.83-.062-16.246-.075C-3397.158-203.725-3398.579-203.723-3400.26-203.723Z" transform="translate(-19.243 -0.285)"/><path class="a" d="M-3340.222-193.667v4.964a10.215,10.215,0,0,0,10.211,10.211h14.626v6.6h-16.245a14.769,14.769,0,0,1-14.771-14.771v-8.621a14.769,14.769,0,0,1,14.771-14.771h16.245v6.179h-14.626A10.215,10.215,0,0,0-3340.222-193.667Z" transform="translate(-34.225 -0.245)"/></g></g><g transform="translate(103.421 957.009) rotate(-90)"><g transform="translate(936.593 38.452)"><path class="b" d="M26.284,2.783a27.605,27.605,0,0,1,0,39.042l-4.112-4.112a21.793,21.793,0,0,0,0-30.819ZM18.063,11a15.982,15.982,0,0,1,0,22.6l-4.109-4.109a10.17,10.17,0,0,0,0-14.384Z" transform="translate(-13.954 -2.783)"/></g></g><text class="c" transform="translate(132.12 39.637)"><tspan x="0" y="0">MANAGE</tspan></text><line class="d" y2="39" transform="translate(126.211 0.916)"/></svg>