<svg xmlns="http://www.w3.org/2000/svg" width="24" height="24" viewBox="0 0 24 24"><defs><style>.a{fill:none;}.b{fill:#6f7f91;}</style></defs><g transform="translate(-1556 -257)"><g transform="translate(1556 257)"><path class="a" d="M0,0H24V24H0Z"/><path d="M5,10a2,2,0,1,0,2,2A2.006,2.006,0,0,0,5,10Zm14,0a2,2,0,1,0,2,2A2.006,2.006,0,0,0,19,10Zm-7,0a2,2,0,1,0,2,2A2.006,2.006,0,0,0,12,10Z"/></g><g transform="translate(1556 257)"><path class="a" d="M0,0H24V24H0Z"/><path class="b" d="M5,10a2,2,0,1,0,2,2A2.006,2.006,0,0,0,5,10Zm14,0a2,2,0,1,0,2,2A2.006,2.006,0,0,0,19,10Zm-7,0a2,2,0,1,0,2,2A2.006,2.006,0,0,0,12,10Z"/></g></g></svg>